<?xml version="1.0" encoding="iso-8859-1"?>
<!-- Generator: Adobe Illustrator 19.0.0, SVG Export Plug-In . SVG Version: 6.00 Build 0)  -->
<svg version="1.1" id="Layer_1" xmlns="http://www.w3.org/2000/svg" xmlns:xlink="http://www.w3.org/1999/xlink" x="0px" y="0px"
	 viewBox="0 0 511.998 511.998" style="enable-background:new 0 0 511.998 511.998;" xml:space="preserve">
<rect x="139.851" y="185.559" style="fill:#5C6670;" width="232.284" height="270.35"/>
<path style="fill:#A4A9AD;" d="M383.582,154.918v42.365c0,8.356-6.837,15.192-15.192,15.192H143.609
	c-8.356,0-15.192-6.836-15.192-15.192v-42.365H383.582z"/>
<rect x="128.417" y="154.918" style="fill:#5C6670;" width="255.165" height="28.779"/>
<path style="fill:#333E48;" d="M421.893,140.566c0,16.71-13.673,30.383-30.383,30.383H120.489c-16.71,0-30.383-13.673-30.383-30.383
	V38.512c0-16.711,13.673-30.383,30.383-30.383h271.02c16.711,0,30.383,13.672,30.383,30.383v102.054H421.893z"/>
<rect x="346.134" y="49.843" style="fill:#A4A9AD;" width="22.28" height="35.447"/>
<rect x="346.134" y="67.569" style="fill:#5C6670;" width="22.28" height="17.725"/>
<polygon style="fill:#333E48;" points="174.058,234.674 174.058,254.234 128.896,254.234 162.318,304.365 337.941,304.365 
	337.941,234.674 "/>
<path style="fill:#99DAEA;" d="M368.329,302.172c-3.955-16.235-20.866-29.519-37.577-29.519H181.244
	c-16.71,0-33.621,13.285-37.577,29.519l-26.591,109.133c-3.956,16.236,6.48,29.52,23.19,29.52h231.462
	c16.711,0,27.146-13.285,23.19-29.52L368.329,302.172z"/>
<path style="fill:#734F42;" d="M394.92,411.305l-14.775-60.643H131.853l-14.776,60.643c-3.956,16.236,6.48,29.52,23.19,29.52
	h231.462C388.44,440.827,398.876,427.542,394.92,411.305z"/>
<path style="fill:#333E48;" d="M421.893,473.488c0,16.711-13.673,30.383-30.383,30.383H120.489
	c-16.71,0-30.383-13.672-30.383-30.383v-10.939c0-16.71,13.673-30.383,30.383-30.383h271.02c16.711,0,30.383,13.673,30.383,30.383
	v10.939H421.893z"/>
<path style="fill:#1E252B;" d="M229.88,312.601h-15.925c-4.489,0-8.129,3.639-8.129,8.129c0,4.491,3.64,8.129,8.129,8.129h15.925
	c4.489,0,8.129-3.639,8.129-8.129C238.009,316.241,234.369,312.601,229.88,312.601z M213.954,399.115h15.925
	c4.489,0,8.129-3.639,8.129-8.129s-3.64-8.129-8.129-8.129h-15.925c-4.489,0-8.129,3.639-8.129,8.129
	S209.465,399.115,213.954,399.115z M373.558,41.714h-32.561c-4.489,0-8.129,3.639-8.129,8.129V85.29c0,4.49,3.64,8.129,8.129,8.129
	h32.561c4.489,0,8.129-3.639,8.129-8.129V49.843C381.687,45.353,378.047,41.714,373.558,41.714z M365.429,77.161h-16.302V57.972
	h16.303L365.429,77.161L365.429,77.161z M391.711,197.283v-18.209c21.143-0.111,38.309-17.339,38.309-38.507V38.512
	C430.022,17.276,412.745,0,391.509,0h-271.02C99.254,0,81.977,17.276,81.977,38.512v102.054c0,21.168,17.167,38.398,38.311,38.507
	v18.209c0,8.516,4.603,15.96,11.438,20.029v28.792h-2.83c-2.998,0-5.753,1.65-7.168,4.293s-1.259,5.851,0.404,8.345l9.594,14.389
	v43.715l-22.547,92.534c-1.371,5.624-1.382,11.231-0.131,16.389c-15.667,4.884-27.072,19.524-27.072,36.778v10.939
	c0,21.236,17.276,38.512,38.512,38.512h271.02c21.236,0,38.512-17.276,38.512-38.512v-10.939c0-17.254-11.406-31.895-27.073-36.779
	c1.251-5.156,1.24-10.764-0.131-16.388l-7.107-29.167c7.092-1.427,12.639-4.485,16.546-9.149
	c9.326-11.136,6.365-27.743,4.405-38.731c-0.62-3.478-1.606-9.674-2.651-16.233c-1.948-12.235-4.157-26.103-5.526-32.282
	c-3.544-15.997-13.269-27.242-28.211-32.811V217.31C387.108,213.242,391.711,205.799,391.711,197.283z M124.975,413.23
	l13.264-54.439h68.141c1.177,3.038,4.121,5.195,7.574,5.195h15.925c3.453,0,6.397-2.157,7.574-5.195h10.416v43.339
	c0,4.49,3.64,8.129,8.129,8.129c4.489,0,8.129-3.639,8.129-8.129v-43.339h109.629l13.264,54.439
	c0.966,3.965,0.76,7.685-0.541,10.806H125.516C124.215,420.914,124.009,417.194,124.975,413.23z M255.999,301.457
	c-4.489,0-8.129,3.639-8.129,8.129v32.948H142.2l9.366-38.437c3.079-12.638,16.671-23.315,29.679-23.315h149.508
	c13.009,0,26.599,10.677,29.679,23.315l9.366,38.437H264.128v-32.948C264.128,305.096,260.489,301.457,255.999,301.457z
	 M346.07,247.232v-12.558c0-4.49-3.64-8.129-8.129-8.129H174.058c-4.489,0-8.129,3.639-8.129,8.129v11.431h-17.945v-25.501h216.031
	v26.766C357.287,246.691,350.998,246.892,346.07,247.232z M364.015,263.797v15.195c-5.069-5.094-11.248-9.126-17.946-11.626v-3.814
	C352.027,263.149,358.184,263.07,364.015,263.797z M174.058,262.363c4.489,0,8.129-3.639,8.129-8.129v-11.431h147.624v21.721
	H181.244c-10.359,0-20.552,3.963-28.754,10.445l-8.404-12.607L174.058,262.363L174.058,262.363z M368.391,204.344H143.609
	c-3.894,0-7.063-3.168-7.063-7.063v-18.204h238.908v18.204C375.453,201.176,372.285,204.344,368.391,204.344z M413.764,462.548
	v10.939c0,12.271-9.984,22.254-22.254,22.254H120.489c-12.271,0-22.254-9.984-22.254-22.254v-10.939
	c0-12.271,9.984-22.254,22.254-22.254h271.02C403.78,440.294,413.764,450.278,413.764,462.548z M392.612,287.336
	c1.263,5.701,3.525,19.907,5.342,31.322c1.103,6.924,2.055,12.902,2.702,16.529c1.429,8.013,3.588,20.122-0.864,25.44
	c-1.58,1.887-4.254,3.14-7.934,3.775l-11.584-47.546v-47.806C386.163,272.71,390.646,278.467,392.612,287.336z M120.489,162.821
	c-12.271,0-22.254-9.984-22.254-22.254V38.512c0-12.271,9.984-22.254,22.254-22.254h271.02c12.271,0,22.254,9.984,22.254,22.254
	v102.054c0,12.27-9.984,22.254-22.254,22.254h-271.02V162.821z M357.278,109.596c-6.152,0-11.14,4.989-11.14,11.14
	c0,6.153,4.988,11.139,11.14,11.139c6.152,0,11.14-4.987,11.14-11.139C368.418,114.585,363.43,109.596,357.278,109.596z
	 M320.818,109.596c-6.153,0-11.14,4.989-11.14,11.14c0,6.153,4.987,11.139,11.14,11.139c6.152,0,11.14-4.987,11.14-11.139
	C331.958,114.585,326.97,109.596,320.818,109.596z"/>
<g>
</g>
<g>
</g>
<g>
</g>
<g>
</g>
<g>
</g>
<g>
</g>
<g>
</g>
<g>
</g>
<g>
</g>
<g>
</g>
<g>
</g>
<g>
</g>
<g>
</g>
<g>
</g>
<g>
</g>
</svg>
